# xmcd CD database file
#
# Track frame offsets:
#	150
#	17776
#	32596
#	44962
#	60042
#	75265
#	88244
#	105270
#	119821
#	136843
#	148693
#	161327
#
# Disc length: 2344 seconds
#
# Revision: 0
# Processed by: cddbd v1.5.2PL0 Copyright (c) Steve Scherf et al.
# Submitted via: jetAudio 7
#
DISCID=9509260c
DTITLE=John Williamson - Chandelier of Stars
DYEAR=1900
DGENRE=Country
TTITLE0=Little Girl From the Dryland
TTITLE1=Chandelier of Stars
TTITLE2=Bells In a Bushman's Ear
TTITLE3=Cowboys and Indians
TTITLE4=Skinny Dingoes
TTITLE5=The Camel Boy
TTITLE6=Keeper of the Stones
TTITLE7=Desert Child
TTITLE8=Renner Springs
TTITLE9=A Country Balladeer
TTITLE10=Firestorm
TTITLE11=Flower On the Water
EXTD=
EXTT0=
EXTT1=
EXTT2=
EXTT3=
EXTT4=
EXTT5=
EXTT6=
EXTT7=
EXTT8=
EXTT9=
EXTT10=
EXTT11=
PLAYORDER=
